<svg width="21" height="14" viewBox="0 0 21 14" fill="none" xmlns="http://www.w3.org/2000/svg">
<path d="M5.19732 13.1482C5.19732 13.1482 4.13672 13.1482 4.13672 12.0876C4.13672 11.027 5.19732 7.84514 10.5004 7.84514C15.8034 7.84514 16.864 11.027 16.864 12.0876C16.864 13.1482 15.8034 13.1482 15.8034 13.1482H5.19732ZM10.5004 6.78454C11.3442 6.78454 12.1535 6.44931 12.7502 5.8526C13.3469 5.2559 13.6822 4.44659 13.6822 3.60272C13.6822 2.75885 13.3469 1.94954 12.7502 1.35283C12.1535 0.756125 11.3442 0.420898 10.5004 0.420898C9.65648 0.420898 8.84718 0.756125 8.25047 1.35283C7.65376 1.94954 7.31854 2.75885 7.31854 3.60272C7.31854 4.44659 7.65376 5.2559 8.25047 5.8526C8.84718 6.44931 9.65648 6.78453 10.5004 6.78454Z" fill="#00343A" fill-opacity="0.8"/>
<path d="M1.10606 10.4212C1.10606 10.4212 0.5 10.4212 0.5 9.8151C0.5 9.20904 1.10606 7.39086 4.13636 7.39086C7.16667 7.39086 7.77273 9.20904 7.77273 9.8151C7.77273 10.4212 7.16667 10.4212 7.16667 10.4212H1.10606ZM4.13636 6.7848C4.61858 6.7848 5.08104 6.59324 5.42201 6.25227C5.76299 5.91129 5.95455 5.44883 5.95455 4.96662C5.95455 4.48441 5.76299 4.02195 5.42201 3.68097C5.08104 3.34 4.61858 3.14844 4.13636 3.14844C3.65415 3.14844 3.19169 3.34 2.85072 3.68097C2.50974 4.02195 2.31818 4.48441 2.31818 4.96662C2.31818 5.44883 2.50974 5.91129 2.85072 6.25227C3.19169 6.59324 3.65415 6.7848 4.13636 6.7848Z" fill="#00343A" fill-opacity="0.5"/>
<path d="M13.8336 10.4212C13.8336 10.4212 13.2275 10.4212 13.2275 9.8151C13.2275 9.20904 13.8336 7.39086 16.8639 7.39086C19.8942 7.39086 20.5003 9.20904 20.5003 9.8151C20.5003 10.4212 19.8942 10.4212 19.8942 10.4212H13.8336ZM16.8639 6.7848C17.3461 6.7848 17.8086 6.59324 18.1496 6.25227C18.4905 5.91129 18.6821 5.44883 18.6821 4.96662C18.6821 4.48441 18.4905 4.02195 18.1496 3.68097C17.8086 3.34 17.3461 3.14844 16.8639 3.14844C16.3817 3.14844 15.9192 3.34 15.5783 3.68097C15.2373 4.02195 15.0457 4.48441 15.0457 4.96662C15.0457 5.44883 15.2373 5.91129 15.5783 6.25227C15.9192 6.59324 16.3817 6.7848 16.8639 6.7848Z" fill="#00343A" fill-opacity="0.5"/>
</svg>
