<svg width="21" height="14" viewBox="0 0 21 14" fill="none" xmlns="http://www.w3.org/2000/svg">
<path d="M5.19732 13.1487C5.19732 13.1487 4.13672 13.1487 4.13672 12.0881C4.13672 11.0274 5.19732 7.84563 10.5004 7.84563C15.8034 7.84563 16.864 11.0274 16.864 12.0881C16.864 13.1487 15.8034 13.1487 15.8034 13.1487H5.19732ZM10.5004 6.78502C11.3442 6.78502 12.1535 6.4498 12.7502 5.85309C13.3469 5.25638 13.6822 4.44708 13.6822 3.60321C13.6822 2.75933 13.3469 1.95003 12.7502 1.35332C12.1535 0.756613 11.3442 0.421387 10.5004 0.421387C9.65648 0.421387 8.84718 0.756613 8.25047 1.35332C7.65376 1.95003 7.31854 2.75933 7.31854 3.60321C7.31854 4.44708 7.65376 5.25638 8.25047 5.85309C8.84718 6.4498 9.65648 6.78502 10.5004 6.78502Z" fill="#EE7038"/>
<path d="M1.10606 10.4212C1.10606 10.4212 0.5 10.4212 0.5 9.8151C0.5 9.20904 1.10606 7.39086 4.13636 7.39086C7.16667 7.39086 7.77273 9.20904 7.77273 9.8151C7.77273 10.4212 7.16667 10.4212 7.16667 10.4212H1.10606ZM4.13636 6.7848C4.61858 6.7848 5.08104 6.59324 5.42201 6.25227C5.76299 5.91129 5.95455 5.44883 5.95455 4.96662C5.95455 4.48441 5.76299 4.02195 5.42201 3.68097C5.08104 3.34 4.61858 3.14844 4.13636 3.14844C3.65415 3.14844 3.19169 3.34 2.85072 3.68097C2.50974 4.02195 2.31818 4.48441 2.31818 4.96662C2.31818 5.44883 2.50974 5.91129 2.85072 6.25227C3.19169 6.59324 3.65415 6.7848 4.13636 6.7848Z" fill="#EE7038"/>
<path d="M13.8336 10.4212C13.8336 10.4212 13.2275 10.4212 13.2275 9.8151C13.2275 9.20904 13.8336 7.39086 16.8639 7.39086C19.8942 7.39086 20.5003 9.20904 20.5003 9.8151C20.5003 10.4212 19.8942 10.4212 19.8942 10.4212H13.8336ZM16.8639 6.7848C17.3461 6.7848 17.8086 6.59324 18.1496 6.25227C18.4905 5.91129 18.6821 5.44883 18.6821 4.96662C18.6821 4.48441 18.4905 4.02195 18.1496 3.68097C17.8086 3.34 17.3461 3.14844 16.8639 3.14844C16.3817 3.14844 15.9192 3.34 15.5783 3.68097C15.2373 4.02195 15.0457 4.48441 15.0457 4.96662C15.0457 5.44883 15.2373 5.91129 15.5783 6.25227C15.9192 6.59324 16.3817 6.7848 16.8639 6.7848Z" fill="#EE7038"/>
</svg>
