<svg width="31" height="40" viewBox="0 0 31 40" fill="none" xmlns="http://www.w3.org/2000/svg">
<path d="M0 5C0 2.23858 2.23858 0 5 0H26C28.7614 0 31 2.23858 31 5V28C31 29.6569 29.6569 31 28 31H3C1.34315 31 0 29.6569 0 28V5Z" fill="#CDD4D9"/>
<path d="M15 40L9.80385 31H20.1962L15 40Z" fill="#CDD4D9"/>
<path d="M18.159 14.6744V10.1403C18.159 9.72297 17.8188 9.38464 17.3992 9.38464H13.6002C13.1805 9.38464 12.8404 9.72297 12.8404 10.1403V14.6744H9.80114V7.1176C9.80114 6.88298 9.91071 6.66167 10.0977 6.51862L15.0364 2.74021C15.3095 2.53126 15.6898 2.53126 15.9629 2.74021L20.9017 6.51862C21.0886 6.66167 21.1982 6.88298 21.1982 7.1176V14.6744H18.159ZM16.6394 14.6744H14.36V10.896H16.6394V14.6744ZM8.55967 15.8079H10.7992L8.05391 25.2126C6.58446 24.3637 5.33996 23.2694 4.41096 22L8.53384 15.8493C8.54295 15.8357 8.55155 15.8219 8.55967 15.8079ZM6.73519 15.8079L3.53986 20.575C2.92332 19.3403 2.58301 17.9866 2.58301 16.5636C2.58301 16.1463 2.92318 15.8079 3.34281 15.8079H6.73519ZM12.3815 15.8079H14.7399V27.1252C12.833 27.0346 11.0337 26.6052 9.43332 25.9078L12.3815 15.8079ZM22.4397 15.8079C22.4478 15.8219 22.4564 15.8357 22.4655 15.8493L26.5884 22C25.6594 23.2694 24.4149 24.3637 22.9454 25.2126L20.2002 15.8079H22.4397ZM24.2642 15.8079H27.6565C28.0762 15.8079 28.4163 16.1463 28.4163 16.5636C28.4163 17.9866 28.076 19.3403 27.4595 20.575L24.2642 15.8079ZM18.6178 15.8079L21.566 25.9078C19.9656 26.6052 18.1663 27.0346 16.2595 27.1252V15.8079H18.6178Z" fill="#1FAB08"/>
</svg>
