<svg width="151" height="51" viewBox="0 0 151 51" fill="none" xmlns="http://www.w3.org/2000/svg">
<rect y="0.710938" width="151" height="50" rx="8" fill="#00343A"/>
<path d="M21.6511 22.9655L19.3353 25.6348L18.3703 24.5397C18.0701 24.1975 17.5769 24.1746 17.2553 24.4941C16.9336 24.8135 16.9122 25.3382 17.2124 25.6804L18.7348 27.4372C18.885 27.5969 19.0994 27.7109 19.3138 27.7109C19.5282 27.7109 19.7427 27.6197 19.8928 27.4372L22.7876 24.1062C23.0878 23.764 23.0664 23.2392 22.7447 22.9198C22.4445 22.6232 21.9513 22.6461 21.6511 22.9655Z" fill="white"/>
<path d="M29.2827 24.9725H28.038C27.6793 21.154 24.6203 18.0949 20.8017 17.7363V16.4704C20.8017 16.0485 20.4641 15.7109 20.0422 15.7109C19.6203 15.7109 19.2827 16.0485 19.2827 16.4704V17.7152C15.4641 18.0738 12.4051 21.1329 12.0464 24.9514H10.7595C10.3376 24.9514 10 25.289 10 25.7109C10 26.1329 10.3376 26.4704 10.7595 26.4704H12.0042C12.3629 30.289 15.4219 33.3481 19.2405 33.7067V34.9514C19.2405 35.3734 19.5781 35.7109 20 35.7109C20.4219 35.7109 20.7595 35.3734 20.7595 34.9514V33.7067C24.5781 33.3481 27.6371 30.289 27.9958 26.4704H29.2405C29.6624 26.4704 30 26.1329 30 25.7109C30 25.289 29.7046 24.9725 29.2827 24.9725ZM20.7806 32.1666V31.0274C20.7806 30.6055 20.443 30.2679 20.0211 30.2679C19.5992 30.2679 19.2616 30.6055 19.2616 31.0274V32.1666C16.2869 31.808 13.9662 29.4662 13.6076 26.5126H14.7468C15.1688 26.5126 15.5063 26.1751 15.5063 25.7531C15.5063 25.3312 15.1688 24.9936 14.7468 24.9936H13.6076C13.9662 22.019 16.308 19.6983 19.2616 19.3396V20.4789C19.2616 20.9008 19.5992 21.2384 20.0211 21.2384C20.443 21.2384 20.7806 20.9008 20.7806 20.4789V19.3396C23.7553 19.6983 26.0759 22.0401 26.4346 24.9936H25.2954C24.8734 24.9936 24.5359 25.3312 24.5359 25.7531C24.5359 26.1751 24.8734 26.5126 25.2954 26.5126H26.4346C26.097 29.4662 23.7553 31.808 20.7806 32.1666Z" fill="white"/>
<path d="M41.918 30.3229C41.6567 30.3229 41.456 30.2483 41.316 30.0989C41.176 29.9496 41.106 29.7443 41.106 29.4829V21.0689C41.106 20.7983 41.1807 20.5929 41.33 20.4529C41.4793 20.3036 41.6847 20.2289 41.946 20.2289C42.1793 20.2289 42.3613 20.2756 42.492 20.3689C42.632 20.4529 42.758 20.6023 42.87 20.8169L46.328 27.2149H45.88L49.338 20.8169C49.45 20.6023 49.5713 20.4529 49.702 20.3689C49.8327 20.2756 50.0147 20.2289 50.248 20.2289C50.5093 20.2289 50.71 20.3036 50.85 20.4529C50.99 20.5929 51.06 20.7983 51.06 21.0689V29.4829C51.06 29.7443 50.99 29.9496 50.85 30.0989C50.7193 30.2483 50.5187 30.3229 50.248 30.3229C49.9867 30.3229 49.786 30.2483 49.646 30.0989C49.506 29.9496 49.436 29.7443 49.436 29.4829V23.0009H49.744L46.804 28.3629C46.7107 28.5216 46.6127 28.6383 46.51 28.7129C46.4073 28.7876 46.2673 28.8249 46.09 28.8249C45.9127 28.8249 45.768 28.7876 45.656 28.7129C45.544 28.6289 45.446 28.5123 45.362 28.3629L42.394 22.9869H42.73V29.4829C42.73 29.7443 42.66 29.9496 42.52 30.0989C42.3893 30.2483 42.1887 30.3229 41.918 30.3229ZM56.4383 30.3509C55.6636 30.3509 54.9963 30.2063 54.4363 29.9169C53.8763 29.6276 53.4423 29.2169 53.1343 28.6849C52.8356 28.1529 52.6863 27.5229 52.6863 26.7949C52.6863 26.0856 52.831 25.4649 53.1203 24.9329C53.419 24.4009 53.825 23.9856 54.3383 23.6869C54.861 23.3789 55.4536 23.2249 56.1163 23.2249C56.6016 23.2249 57.0356 23.3043 57.4183 23.4629C57.8103 23.6216 58.1416 23.8503 58.4123 24.1489C58.6923 24.4476 58.9023 24.8116 59.0423 25.2409C59.1916 25.6609 59.2663 26.1369 59.2663 26.6689C59.2663 26.8369 59.2056 26.9676 59.0843 27.0609C58.9723 27.1449 58.809 27.1869 58.5943 27.1869H54.1003V26.1789H58.0343L57.8103 26.3889C57.8103 25.9596 57.745 25.6003 57.6143 25.3109C57.493 25.0216 57.311 24.8023 57.0683 24.6529C56.835 24.4943 56.541 24.4149 56.1863 24.4149C55.7943 24.4149 55.4583 24.5083 55.1783 24.6949C54.9076 24.8723 54.6976 25.1289 54.5483 25.4649C54.4083 25.7916 54.3383 26.1836 54.3383 26.6409V26.7389C54.3383 27.5043 54.5156 28.0783 54.8703 28.4609C55.2343 28.8343 55.7663 29.0209 56.4663 29.0209C56.709 29.0209 56.9796 28.9929 57.2783 28.9369C57.5863 28.8716 57.8756 28.7643 58.1463 28.6149C58.3423 28.5029 58.515 28.4563 58.6643 28.4749C58.8136 28.4843 58.9303 28.5356 59.0143 28.6289C59.1076 28.7223 59.1636 28.8389 59.1823 28.9789C59.201 29.1096 59.173 29.2449 59.0983 29.3849C59.033 29.5249 58.9163 29.6463 58.7483 29.7489C58.4216 29.9543 58.0436 30.1083 57.6143 30.2109C57.1943 30.3043 56.8023 30.3509 56.4383 30.3509ZM67.645 32.8709C67.141 32.8709 66.651 32.8243 66.175 32.7309C65.7083 32.6376 65.2836 32.4929 64.901 32.2969C64.7236 32.2036 64.6023 32.0916 64.537 31.9609C64.481 31.8303 64.4623 31.6949 64.481 31.5549C64.509 31.4243 64.565 31.3076 64.649 31.2049C64.7423 31.1023 64.8543 31.0323 64.985 30.9949C65.1156 30.9576 65.251 30.9763 65.391 31.0509C65.8016 31.2563 66.189 31.3869 66.553 31.4429C66.9263 31.5083 67.2436 31.5409 67.505 31.5409C68.1303 31.5409 68.597 31.3869 68.905 31.0789C69.2223 30.7803 69.381 30.3323 69.381 29.7349V28.4749H69.507C69.367 28.9509 69.073 29.3336 68.625 29.6229C68.1863 29.9029 67.687 30.0429 67.127 30.0429C66.511 30.0429 65.9743 29.9029 65.517 29.6229C65.0596 29.3336 64.705 28.9323 64.453 28.4189C64.201 27.9056 64.075 27.3083 64.075 26.6269C64.075 26.1136 64.145 25.6516 64.285 25.2409C64.4343 24.8209 64.6396 24.4616 64.901 24.1629C65.1716 23.8643 65.4936 23.6356 65.867 23.4769C66.2496 23.3089 66.6696 23.2249 67.127 23.2249C67.7056 23.2249 68.2096 23.3696 68.639 23.6589C69.0776 23.9389 69.3623 24.3123 69.493 24.7789L69.353 25.1289V24.1349C69.353 23.8456 69.4276 23.6263 69.577 23.4769C69.7356 23.3276 69.9503 23.2529 70.221 23.2529C70.501 23.2529 70.7156 23.3276 70.865 23.4769C71.0143 23.6263 71.089 23.8456 71.089 24.1349V29.5249C71.089 30.6356 70.795 31.4709 70.207 32.0309C69.619 32.5909 68.765 32.8709 67.645 32.8709ZM67.603 28.7129C67.967 28.7129 68.2796 28.6289 68.541 28.4609C68.8023 28.2929 69.003 28.0549 69.143 27.7469C69.2923 27.4296 69.367 27.0563 69.367 26.6269C69.367 25.9829 69.2083 25.4789 68.891 25.1149C68.5736 24.7416 68.1443 24.5549 67.603 24.5549C67.239 24.5549 66.9263 24.6389 66.665 24.8069C66.4036 24.9749 66.1983 25.2129 66.049 25.5209C65.909 25.8289 65.839 26.1976 65.839 26.6269C65.839 27.2709 65.9976 27.7796 66.315 28.1529C66.6323 28.5263 67.0616 28.7129 67.603 28.7129ZM76.2762 30.3509C75.5015 30.3509 74.8342 30.2063 74.2742 29.9169C73.7142 29.6276 73.2802 29.2169 72.9722 28.6849C72.6735 28.1529 72.5242 27.5229 72.5242 26.7949C72.5242 26.0856 72.6689 25.4649 72.9582 24.9329C73.2569 24.4009 73.6629 23.9856 74.1762 23.6869C74.6989 23.3789 75.2915 23.2249 75.9542 23.2249C76.4395 23.2249 76.8735 23.3043 77.2562 23.4629C77.6482 23.6216 77.9795 23.8503 78.2502 24.1489C78.5302 24.4476 78.7402 24.8116 78.8802 25.2409C79.0295 25.6609 79.1042 26.1369 79.1042 26.6689C79.1042 26.8369 79.0435 26.9676 78.9222 27.0609C78.8102 27.1449 78.6469 27.1869 78.4322 27.1869H73.9382V26.1789H77.8722L77.6482 26.3889C77.6482 25.9596 77.5829 25.6003 77.4522 25.3109C77.3309 25.0216 77.1489 24.8023 76.9062 24.6529C76.6729 24.4943 76.3789 24.4149 76.0242 24.4149C75.6322 24.4149 75.2962 24.5083 75.0162 24.6949C74.7455 24.8723 74.5355 25.1289 74.3862 25.4649C74.2462 25.7916 74.1762 26.1836 74.1762 26.6409V26.7389C74.1762 27.5043 74.3535 28.0783 74.7082 28.4609C75.0722 28.8343 75.6042 29.0209 76.3042 29.0209C76.5469 29.0209 76.8175 28.9929 77.1162 28.9369C77.4242 28.8716 77.7135 28.7643 77.9842 28.6149C78.1802 28.5029 78.3529 28.4563 78.5022 28.4749C78.6515 28.4843 78.7682 28.5356 78.8522 28.6289C78.9455 28.7223 79.0015 28.8389 79.0202 28.9789C79.0389 29.1096 79.0109 29.2449 78.9362 29.3849C78.8709 29.5249 78.7542 29.6463 78.5862 29.7489C78.2595 29.9543 77.8815 30.1083 77.4522 30.2109C77.0322 30.3043 76.6402 30.3509 76.2762 30.3509ZM76.6262 22.3709C76.5329 22.5016 76.4209 22.5763 76.2902 22.5949C76.1595 22.6136 76.0335 22.5903 75.9122 22.5249C75.7909 22.4596 75.7022 22.3663 75.6462 22.2449C75.5995 22.1236 75.6135 21.9883 75.6882 21.8389L76.7522 19.7529C76.8362 19.5756 76.9482 19.4636 77.0882 19.4169C77.2282 19.3609 77.3729 19.3516 77.5222 19.3889C77.6715 19.4263 77.7975 19.4963 77.9002 19.5989C78.0122 19.7016 78.0775 19.8276 78.0962 19.9769C78.1242 20.1169 78.0869 20.2616 77.9842 20.4109L76.6262 22.3709ZM83.6121 30.3509C82.9027 30.3509 82.2867 30.2063 81.7641 29.9169C81.2414 29.6276 80.8354 29.2169 80.5461 28.6849C80.2567 28.1436 80.1121 27.5089 80.1121 26.7809C80.1121 26.2303 80.1914 25.7403 80.3501 25.3109C80.5181 24.8723 80.7561 24.4989 81.0641 24.1909C81.3721 23.8736 81.7407 23.6356 82.1701 23.4769C82.5994 23.3089 83.0801 23.2249 83.6121 23.2249C84.3214 23.2249 84.9374 23.3696 85.4601 23.6589C85.9827 23.9483 86.3887 24.3589 86.6781 24.8909C86.9674 25.4229 87.1121 26.0529 87.1121 26.7809C87.1121 27.3316 87.0281 27.8263 86.8601 28.2649C86.7014 28.7036 86.4681 29.0816 86.1601 29.3989C85.8521 29.7069 85.4834 29.9449 85.0541 30.1129C84.6247 30.2716 84.1441 30.3509 83.6121 30.3509ZM83.6121 29.0209C83.9574 29.0209 84.2607 28.9369 84.5221 28.7689C84.7834 28.6009 84.9841 28.3536 85.1241 28.0269C85.2734 27.6909 85.3481 27.2756 85.3481 26.7809C85.3481 26.0343 85.1894 25.4789 84.8721 25.1149C84.5547 24.7416 84.1347 24.5549 83.6121 24.5549C83.2667 24.5549 82.9634 24.6389 82.7021 24.8069C82.4407 24.9656 82.2354 25.2129 82.0861 25.5489C81.9461 25.8756 81.8761 26.2863 81.8761 26.7809C81.8761 27.5183 82.0347 28.0783 82.3521 28.4609C82.6694 28.8343 83.0894 29.0209 83.6121 29.0209ZM90.8945 30.3509C90.1198 30.3509 89.5365 30.1316 89.1445 29.6929C88.7525 29.2449 88.5565 28.5916 88.5565 27.7329V21.1109C88.5565 20.8216 88.6312 20.6023 88.7805 20.4529C88.9298 20.3036 89.1445 20.2289 89.4245 20.2289C89.7045 20.2289 89.9192 20.3036 90.0685 20.4529C90.2272 20.6023 90.3065 20.8216 90.3065 21.1109V27.6489C90.3065 28.0783 90.3952 28.3956 90.5725 28.6009C90.7592 28.8063 91.0205 28.9089 91.3565 28.9089C91.4312 28.9089 91.5012 28.9089 91.5665 28.9089C91.6318 28.8996 91.6972 28.8903 91.7625 28.8809C91.8932 28.8623 91.9818 28.8996 92.0285 28.9929C92.0752 29.0769 92.0985 29.2543 92.0985 29.5249C92.0985 29.7583 92.0518 29.9403 91.9585 30.0709C91.8652 30.2016 91.7112 30.2809 91.4965 30.3089C91.4032 30.3183 91.3052 30.3276 91.2025 30.3369C91.0998 30.3463 90.9972 30.3509 90.8945 30.3509ZM96.0808 30.3509C95.3715 30.3509 94.7555 30.2063 94.2328 29.9169C93.7102 29.6276 93.3042 29.2169 93.0148 28.6849C92.7255 28.1436 92.5808 27.5089 92.5808 26.7809C92.5808 26.2303 92.6602 25.7403 92.8188 25.3109C92.9868 24.8723 93.2248 24.4989 93.5328 24.1909C93.8408 23.8736 94.2095 23.6356 94.6388 23.4769C95.0682 23.3089 95.5488 23.2249 96.0808 23.2249C96.7902 23.2249 97.4062 23.3696 97.9288 23.6589C98.4515 23.9483 98.8575 24.3589 99.1468 24.8909C99.4362 25.4229 99.5808 26.0529 99.5808 26.7809C99.5808 27.3316 99.4968 27.8263 99.3288 28.2649C99.1702 28.7036 98.9368 29.0816 98.6288 29.3989C98.3208 29.7069 97.9522 29.9449 97.5228 30.1129C97.0935 30.2716 96.6128 30.3509 96.0808 30.3509ZM96.0808 29.0209C96.4262 29.0209 96.7295 28.9369 96.9908 28.7689C97.2522 28.6009 97.4528 28.3536 97.5928 28.0269C97.7422 27.6909 97.8168 27.2756 97.8168 26.7809C97.8168 26.0343 97.6582 25.4789 97.3408 25.1149C97.0235 24.7416 96.6035 24.5549 96.0808 24.5549C95.7355 24.5549 95.4322 24.6389 95.1708 24.8069C94.9095 24.9656 94.7042 25.2129 94.5548 25.5489C94.4148 25.8756 94.3448 26.2863 94.3448 26.7809C94.3448 27.5183 94.5035 28.0783 94.8208 28.4609C95.1382 28.8343 95.5582 29.0209 96.0808 29.0209ZM104.189 30.3509C103.471 30.3509 102.845 30.2063 102.313 29.9169C101.781 29.6183 101.371 29.1983 101.081 28.6569C100.792 28.1156 100.647 27.4809 100.647 26.7529C100.647 26.2023 100.727 25.7123 100.885 25.2829C101.053 24.8443 101.291 24.4756 101.599 24.1769C101.907 23.8689 102.281 23.6356 102.719 23.4769C103.158 23.3089 103.648 23.2249 104.189 23.2249C104.497 23.2249 104.829 23.2669 105.183 23.3509C105.547 23.4349 105.888 23.5749 106.205 23.7709C106.355 23.8643 106.453 23.9763 106.499 24.1069C106.546 24.2376 106.555 24.3729 106.527 24.5129C106.499 24.6436 106.439 24.7603 106.345 24.8629C106.261 24.9563 106.154 25.0169 106.023 25.0449C105.893 25.0636 105.748 25.0309 105.589 24.9469C105.384 24.8256 105.174 24.7369 104.959 24.6809C104.745 24.6156 104.539 24.5829 104.343 24.5829C104.035 24.5829 103.765 24.6343 103.531 24.7369C103.298 24.8303 103.097 24.9703 102.929 25.1569C102.771 25.3343 102.649 25.5583 102.565 25.8289C102.481 26.0996 102.439 26.4123 102.439 26.7669C102.439 27.4576 102.603 28.0036 102.929 28.4049C103.265 28.7969 103.737 28.9929 104.343 28.9929C104.539 28.9929 104.74 28.9649 104.945 28.9089C105.16 28.8529 105.375 28.7643 105.589 28.6429C105.748 28.5589 105.888 28.5309 106.009 28.5589C106.14 28.5869 106.247 28.6523 106.331 28.7549C106.415 28.8483 106.467 28.9649 106.485 29.1049C106.504 29.2356 106.485 29.3663 106.429 29.4969C106.383 29.6276 106.289 29.7349 106.149 29.8189C105.841 30.0056 105.515 30.1409 105.169 30.2249C104.824 30.3089 104.497 30.3509 104.189 30.3509ZM109.842 30.3509C109.347 30.3509 108.904 30.2576 108.512 30.0709C108.129 29.8749 107.826 29.6136 107.602 29.2869C107.387 28.9603 107.28 28.5916 107.28 28.1809C107.28 27.6769 107.41 27.2803 107.672 26.9909C107.933 26.6923 108.358 26.4776 108.946 26.3469C109.534 26.2163 110.322 26.1509 111.312 26.1509H112.012V27.1589H111.326C110.747 27.1589 110.285 27.1869 109.94 27.2429C109.594 27.2989 109.347 27.3969 109.198 27.5369C109.058 27.6676 108.988 27.8543 108.988 28.0969C108.988 28.4049 109.095 28.6569 109.31 28.8529C109.524 29.0489 109.823 29.1469 110.206 29.1469C110.514 29.1469 110.784 29.0769 111.018 28.9369C111.26 28.7876 111.452 28.5869 111.592 28.3349C111.732 28.0829 111.802 27.7936 111.802 27.4669V25.8569C111.802 25.3903 111.699 25.0543 111.494 24.8489C111.288 24.6436 110.943 24.5409 110.458 24.5409C110.187 24.5409 109.893 24.5736 109.576 24.6389C109.268 24.7043 108.941 24.8163 108.596 24.9749C108.418 25.0589 108.26 25.0823 108.12 25.0449C107.989 25.0076 107.886 24.9329 107.812 24.8209C107.737 24.6996 107.7 24.5689 107.7 24.4289C107.7 24.2889 107.737 24.1536 107.812 24.0229C107.886 23.8829 108.012 23.7803 108.19 23.7149C108.619 23.5376 109.03 23.4116 109.422 23.3369C109.823 23.2623 110.187 23.2249 110.514 23.2249C111.186 23.2249 111.736 23.3276 112.166 23.5329C112.604 23.7383 112.931 24.0509 113.146 24.4709C113.36 24.8816 113.468 25.4136 113.468 26.0669V29.4269C113.468 29.7163 113.398 29.9403 113.258 30.0989C113.118 30.2483 112.917 30.3229 112.656 30.3229C112.394 30.3229 112.189 30.2483 112.04 30.0989C111.9 29.9403 111.83 29.7163 111.83 29.4269V28.7549H111.942C111.876 29.0816 111.746 29.3663 111.55 29.6089C111.363 29.8423 111.125 30.0243 110.836 30.1549C110.546 30.2856 110.215 30.3509 109.842 30.3509ZM117.582 30.3509C116.807 30.3509 116.224 30.1316 115.832 29.6929C115.44 29.2449 115.244 28.5916 115.244 27.7329V21.1109C115.244 20.8216 115.319 20.6023 115.468 20.4529C115.617 20.3036 115.832 20.2289 116.112 20.2289C116.392 20.2289 116.607 20.3036 116.756 20.4529C116.915 20.6023 116.994 20.8216 116.994 21.1109V27.6489C116.994 28.0783 117.083 28.3956 117.26 28.6009C117.447 28.8063 117.708 28.9089 118.044 28.9089C118.119 28.9089 118.189 28.9089 118.254 28.9089C118.319 28.8996 118.385 28.8903 118.45 28.8809C118.581 28.8623 118.669 28.8996 118.716 28.9929C118.763 29.0769 118.786 29.2543 118.786 29.5249C118.786 29.7583 118.739 29.9403 118.646 30.0709C118.553 30.2016 118.399 30.2809 118.184 30.3089C118.091 30.3183 117.993 30.3276 117.89 30.3369C117.787 30.3463 117.685 30.3509 117.582 30.3509ZM120.583 30.3089C120.303 30.3089 120.088 30.2249 119.939 30.0569C119.789 29.8889 119.715 29.6556 119.715 29.3569V24.2189C119.715 23.9109 119.789 23.6776 119.939 23.5189C120.088 23.3509 120.303 23.2669 120.583 23.2669C120.863 23.2669 121.077 23.3509 121.227 23.5189C121.385 23.6776 121.465 23.9109 121.465 24.2189V29.3569C121.465 29.6556 121.39 29.8889 121.241 30.0569C121.091 30.2249 120.872 30.3089 120.583 30.3089ZM120.583 21.9649C120.256 21.9649 119.999 21.8856 119.813 21.7269C119.635 21.5589 119.547 21.3303 119.547 21.0409C119.547 20.7423 119.635 20.5136 119.813 20.3549C119.999 20.1963 120.256 20.1169 120.583 20.1169C120.919 20.1169 121.175 20.1963 121.353 20.3549C121.53 20.5136 121.619 20.7423 121.619 21.0409C121.619 21.3303 121.53 21.5589 121.353 21.7269C121.175 21.8856 120.919 21.9649 120.583 21.9649ZM125.789 30.3509C125.388 30.3509 124.963 30.3089 124.515 30.2249C124.067 30.1409 123.666 29.9963 123.311 29.7909C123.162 29.6976 123.054 29.5903 122.989 29.4689C122.933 29.3383 122.91 29.2123 122.919 29.0909C122.938 28.9603 122.984 28.8483 123.059 28.7549C123.143 28.6616 123.246 28.6009 123.367 28.5729C123.498 28.5449 123.638 28.5683 123.787 28.6429C124.16 28.8203 124.51 28.9463 124.837 29.0209C125.164 29.0863 125.486 29.1189 125.803 29.1189C126.251 29.1189 126.582 29.0443 126.797 28.8949C127.021 28.7363 127.133 28.5309 127.133 28.2789C127.133 28.0643 127.058 27.9009 126.909 27.7889C126.769 27.6676 126.554 27.5789 126.265 27.5229L124.865 27.2569C124.286 27.1449 123.843 26.9349 123.535 26.6269C123.236 26.3096 123.087 25.9036 123.087 25.4089C123.087 24.9609 123.208 24.5736 123.451 24.2469C123.703 23.9203 124.048 23.6683 124.487 23.4909C124.926 23.3136 125.43 23.2249 125.999 23.2249C126.41 23.2249 126.792 23.2716 127.147 23.3649C127.511 23.4489 127.861 23.5843 128.197 23.7709C128.337 23.8456 128.43 23.9436 128.477 24.0649C128.533 24.1863 128.547 24.3123 128.519 24.4429C128.491 24.5643 128.435 24.6763 128.351 24.7789C128.267 24.8723 128.16 24.9329 128.029 24.9609C127.908 24.9796 127.768 24.9516 127.609 24.8769C127.32 24.7276 127.04 24.6203 126.769 24.5549C126.508 24.4896 126.256 24.4569 126.013 24.4569C125.556 24.4569 125.215 24.5363 124.991 24.6949C124.776 24.8536 124.669 25.0636 124.669 25.3249C124.669 25.5209 124.734 25.6843 124.865 25.8149C124.996 25.9456 125.196 26.0343 125.467 26.0809L126.867 26.3469C127.474 26.4589 127.931 26.6643 128.239 26.9629C128.556 27.2616 128.715 27.6629 128.715 28.1669C128.715 28.8483 128.449 29.3849 127.917 29.7769C127.385 30.1596 126.676 30.3509 125.789 30.3509ZM133.493 30.3509C132.718 30.3509 132.051 30.2063 131.491 29.9169C130.931 29.6276 130.497 29.2169 130.189 28.6849C129.89 28.1529 129.741 27.5229 129.741 26.7949C129.741 26.0856 129.886 25.4649 130.175 24.9329C130.474 24.4009 130.88 23.9856 131.393 23.6869C131.916 23.3789 132.508 23.2249 133.171 23.2249C133.656 23.2249 134.09 23.3043 134.473 23.4629C134.865 23.6216 135.196 23.8503 135.467 24.1489C135.747 24.4476 135.957 24.8116 136.097 25.2409C136.246 25.6609 136.321 26.1369 136.321 26.6689C136.321 26.8369 136.26 26.9676 136.139 27.0609C136.027 27.1449 135.864 27.1869 135.649 27.1869H131.155V26.1789H135.089L134.865 26.3889C134.865 25.9596 134.8 25.6003 134.669 25.3109C134.548 25.0216 134.366 24.8023 134.123 24.6529C133.89 24.4943 133.596 24.4149 133.241 24.4149C132.849 24.4149 132.513 24.5083 132.233 24.6949C131.962 24.8723 131.752 25.1289 131.603 25.4649C131.463 25.7916 131.393 26.1836 131.393 26.6409V26.7389C131.393 27.5043 131.57 28.0783 131.925 28.4609C132.289 28.8343 132.821 29.0209 133.521 29.0209C133.764 29.0209 134.034 28.9929 134.333 28.9369C134.641 28.8716 134.93 28.7643 135.201 28.6149C135.397 28.5029 135.57 28.4563 135.719 28.4749C135.868 28.4843 135.985 28.5356 136.069 28.6289C136.162 28.7223 136.218 28.8389 136.237 28.9789C136.256 29.1096 136.228 29.2449 136.153 29.3849C136.088 29.5249 135.971 29.6463 135.803 29.7489C135.476 29.9543 135.098 30.1083 134.669 30.2109C134.249 30.3043 133.857 30.3509 133.493 30.3509ZM138.603 30.3229C138.314 30.3229 138.09 30.2483 137.931 30.0989C137.782 29.9403 137.707 29.7163 137.707 29.4269V24.1349C137.707 23.8456 137.782 23.6263 137.931 23.4769C138.08 23.3276 138.29 23.2529 138.561 23.2529C138.832 23.2529 139.042 23.3276 139.191 23.4769C139.34 23.6263 139.415 23.8456 139.415 24.1349V25.0169H139.275C139.406 24.4569 139.662 24.0323 140.045 23.7429C140.428 23.4536 140.936 23.2809 141.571 23.2249C141.767 23.2063 141.921 23.2576 142.033 23.3789C142.154 23.4909 142.224 23.6683 142.243 23.9109C142.262 24.1443 142.206 24.3356 142.075 24.4849C141.954 24.6249 141.767 24.7089 141.515 24.7369L141.207 24.7649C140.638 24.8209 140.208 24.9983 139.919 25.2969C139.63 25.5863 139.485 25.9969 139.485 26.5289V29.4269C139.485 29.7163 139.41 29.9403 139.261 30.0989C139.112 30.2483 138.892 30.3229 138.603 30.3229Z" fill="white"/>
</svg>
