<svg width="21" height="27" viewBox="0 0 21 27" fill="none" xmlns="http://www.w3.org/2000/svg">
<path d="M10.5004 0C16.2997 0 21.0009 5.10616 21.0009 11.4049C21.0009 16.1256 17.6879 21.0734 11.2005 26.3581C10.7856 26.696 10.2152 26.696 9.80041 26.3581C3.31301 21.0734 0 16.1256 0 11.4049C0 5.10616 4.7012 0 10.5004 0ZM10.5004 7.60328C8.56736 7.60328 7.00029 9.30534 7.00029 11.4049C7.00029 13.5045 8.56736 15.2066 10.5004 15.2066C12.4335 15.2066 14.0006 13.5045 14.0006 11.4049C14.0006 9.30534 12.4335 7.60328 10.5004 7.60328Z" fill="#EE7038"/>
</svg>
