<svg width="21" height="19" viewBox="0 0 21 19" fill="none" xmlns="http://www.w3.org/2000/svg">
<path d="M1.93173 2.49782L1.42761 6.42827C1.28219 7.56206 2.11495 8.5869 3.25452 8.67654L7.9599 9.04669C9.22258 9.14601 10.2584 8.06151 10.1013 6.80472L9.64565 3.16039C9.53666 2.28867 8.87158 1.59013 8.00626 1.43852L4.26063 0.782266C3.13717 0.585427 2.07683 1.36651 1.93173 2.49782Z" fill="#EE7038"/>
<path d="M8.58196 10.1686L3.13615 9.68666C2.04232 9.58986 1.07502 10.3931 0.96916 11.4861L0.630698 14.9806C0.551778 15.7954 0.977404 16.5761 1.70507 16.9511L3.82866 18.0457C4.29516 18.2861 4.83748 18.3336 5.33864 18.1778L8.99934 17.0399C9.83574 16.7799 10.4057 16.0059 10.4057 15.13V12.1608C10.4057 11.1246 9.61417 10.2599 8.58196 10.1686Z" fill="#EE7038"/>
<path d="M11.4434 15.2953V12.0594C11.4434 11.1043 12.2177 10.33 13.1728 10.33C13.4618 10.33 13.7462 10.2576 14 10.1193L16.9424 8.51669C17.568 8.17598 18.3275 8.19368 18.9365 8.56318L19.5374 8.92779C20.1351 9.29038 20.5 9.93867 20.5 10.6377V13.4063C20.5 13.9667 20.166 14.473 19.6509 14.6936L19.4442 14.7822C19.0545 14.9491 18.8019 15.3321 18.8019 15.756C18.8019 16.1141 18.621 16.4479 18.321 16.6434L16.4994 17.8309C15.9346 18.1991 15.2223 18.2579 14.6048 17.9874L12.641 17.1273C11.9134 16.8086 11.4434 16.0896 11.4434 15.2953Z" fill="#EE7038"/>
<path d="M10.6095 3.22907L11.2222 7.84532C11.3488 8.79919 12.1623 9.51181 13.1245 9.51181C13.4452 9.51181 13.7608 9.43144 14.0424 9.27805L16.9592 7.68938C17.5326 7.37703 17.7964 6.696 17.5829 6.07886L17.5722 6.04795C17.3584 5.42971 16.7182 5.06688 16.078 5.20101C15.4686 5.32867 14.8543 5.00609 14.6134 4.43196L13.7517 2.37772C13.4511 1.66124 12.6895 1.25346 11.9266 1.4005C11.0726 1.56509 10.495 2.36694 10.6095 3.22907Z" fill="#EE7038"/>
</svg>
