<svg width="21" height="19" viewBox="0 0 21 19" fill="none" xmlns="http://www.w3.org/2000/svg">
<path d="M1.93173 2.49831L1.42761 6.42875C1.28219 7.56255 2.11495 8.58739 3.25452 8.67703L7.9599 9.04718C9.22258 9.1465 10.2584 8.062 10.1013 6.80521L9.64565 3.16088C9.53666 2.28916 8.87158 1.59062 8.00626 1.43901L4.26063 0.782754C3.13717 0.585915 2.07683 1.367 1.93173 2.49831Z" fill="#00343A" fill-opacity="0.5"/>
<path d="M8.58196 10.1691L3.13615 9.68715C2.04232 9.59035 1.07502 10.3936 0.96916 11.4866L0.630698 14.9811C0.551778 15.7959 0.977404 16.5765 1.70507 16.9516L3.82866 18.0462C4.29516 18.2866 4.83748 18.3341 5.33864 18.1783L8.99934 17.0404C9.83574 16.7804 10.4057 16.0064 10.4057 15.1305V12.1613C10.4057 11.1251 9.61417 10.2604 8.58196 10.1691Z" fill="#00343A" fill-opacity="0.5"/>
<path d="M11.4434 15.2958V12.0599C11.4434 11.1048 12.2177 10.3305 13.1728 10.3305C13.4618 10.3305 13.7462 10.2581 14 10.1198L16.9424 8.51718C17.568 8.17647 18.3275 8.19417 18.9365 8.56367L19.5374 8.92828C20.1351 9.29087 20.5 9.93916 20.5 10.6382V13.4068C20.5 13.9671 20.166 14.4735 19.6509 14.6941L19.4442 14.7827C19.0545 14.9495 18.8019 15.3326 18.8019 15.7565C18.8019 16.1146 18.621 16.4484 18.321 16.6439L16.4994 17.8314C15.9346 18.1996 15.2223 18.2584 14.6048 17.9879L12.641 17.1278C11.9134 16.8091 11.4434 16.0901 11.4434 15.2958Z" fill="#00343A" fill-opacity="0.5"/>
<path d="M10.6095 3.22956L11.2222 7.84581C11.3488 8.79967 12.1623 9.5123 13.1245 9.5123C13.4452 9.5123 13.7608 9.43193 14.0424 9.27854L16.9592 7.68986C17.5326 7.37752 17.7964 6.69648 17.5829 6.07935L17.5722 6.04843C17.3584 5.43019 16.7182 5.06737 16.078 5.2015C15.4686 5.32916 14.8543 5.00658 14.6134 4.43245L13.7517 2.37821C13.4511 1.66173 12.6895 1.25395 11.9266 1.40099C11.0726 1.56558 10.495 2.36742 10.6095 3.22956Z" fill="#00343A" fill-opacity="0.5"/>
</svg>
